<?xml version="1.0" encoding="UTF-8"?>
<svg xmlns="http://www.w3.org/2000/svg" xmlns:xlink="http://www.w3.org/1999/xlink" xml:space="preserve" width="190px" height="268px" version="1.1" style="shape-rendering:geometricPrecision; text-rendering:geometricPrecision; image-rendering:optimizeQuality; fill-rule:evenodd; clip-rule:evenodd" viewBox="0 0 21000 29700">
 <defs>
  <style type="text/css">
   
    .fil3 {fill:#04034C}
    .fil1 {fill:#090564}
    .fil2 {fill:#6C0A0C}
    .fil0 {fill:#8B0205}
   
  </style>
 </defs>
 <g id="Capa_x0020_1">
  <g id="_1746194091248">
   <path class="fil0" d="M994.26 14799.65c594.1,0 435.34,88.05 581.04,-486.96l380.14 -1627.72c0,107 -0.88,214.19 -0.73,321.13l68.07 957.23c19.38,183.55 39.79,422.18 56.44,605.73 23.29,256.78 26.69,166.5 474.29,166.5 14.7,-55.06 87.87,-175.66 121.04,-242.09 46.93,-93.99 81.2,-162.42 128.15,-256.31l733.35 -1530.83 -320.4 2093.32c674.17,0 538.84,125.37 634.51,-604.38l262.6 -2044.31c-909.67,0 -710.66,-95.09 -961.18,405.84l-441.19 925.86c-58.12,120.09 -153.88,385.39 -220.96,462.57 0,-431.02 -65.1,-914.76 -85.62,-1345.53 -6.06,-127.38 -42.53,-321.49 -42.53,-448.74l-768.95 0 -589.29 2358.42c-18.25,72.22 -34.53,114.12 -48.25,169.05 -19.93,79.85 -34.22,121.22 39.47,121.22z"></path>
   <path class="fil0" d="M12699.31 8391.53c-594.41,138.48 -1188.39,78.19 -1480.92,548.26 -327.33,526 -144.12,1011.05 -1189.03,1011.05 -487.18,0 -965.73,-234.38 -1330.37,-378.42 -332.36,-131.28 -917.79,-454.64 -1254.14,-454.64 -427.28,0 -731.89,86.5 -1117.2,249.82l-121.65 70.59 405.82 -21.37c535.98,0 1123.84,71.9 1559.54,298.76 135.67,70.66 269.65,157.62 412.5,228.31 654.43,323.84 1113.56,690.48 1894.06,690.48 709.5,0 889.19,-449.05 1157.29,-893.26 217.92,-361.08 389.36,-593.47 783.34,-754.58 303.61,-124.16 518.61,-124.52 861.16,-85.9 79.71,8.99 231.26,41.15 231.26,-17.81 0,-630.14 -909.55,-1311.27 -1461.19,-1529.21 -219.63,-86.77 -522,-214.54 -738.85,-265.07 23.91,66.04 -8.25,24.39 76.92,72.6l319.33 193.32c139.69,93.78 271.69,183.77 397.23,286.28 214.75,175.35 416.56,376.79 557.59,617.2 35.53,60.54 35.37,46.61 37.31,133.59z"></path>
   <path class="fil0" d="M10755.58 16294.87c0,-133.13 18.4,-221.08 39.7,-323.43 22.51,-108.18 72.17,-189.22 195.25,-189.22 252.67,0 143.13,501.87 -24.96,553.85 -117.59,36.37 -115.6,-15.99 -209.99,-41.2zm2435 -351.43c79.16,-61.2 23.75,-127.64 149.52,-161.22 50.47,105.22 52.64,414.59 85.43,555.37 -165.59,0 -75,-8.16 -109.83,-40.4 -17.6,-16.28 14.53,-61.33 -100.16,-45.79 -154.5,20.94 11.37,86.74 -195.84,86.08 -6.45,1.95 -22.18,5.78 -25.58,3.14 -39.49,-30.78 -0.78,18.04 -38.39,-45.75l-23.02 41.82 -190.69 0.9c-23.3,-87.26 -5.44,-1.79 -30.93,-75.37 -9.61,-27.76 -17.35,-63.23 -25.25,-95.51l-8 -21.36c-35.32,188.26 -17.08,182.45 -85.33,196.95l-106.77 -5.61c6.96,-83.12 31.88,-173.33 48.55,-270.92 14.26,-83.53 29.44,-198.21 67.97,-283.55l72.87 -33.44 55.32 102.9c47.2,-78.27 140.82,-136.31 227.56,-114.78 72.56,18.01 155.8,50.34 161.74,130.69 12.42,167.98 -0.29,57.36 -35.97,98.49l-21.36 6.42c59.64,22.95 21.34,-8.73 64.07,31.19l64.09 -60.25zm-2691.31 308.72l192.23 0c-10.21,122.77 -44.98,85.43 -320.39,85.43 41.54,-178.27 65.11,-376.45 106.81,-555.37l85.43 0c0,179.15 -64.08,278.98 -64.08,469.94zm1751.48 -106.92c-64.83,-54.15 -0.48,-162.7 -21.01,-223.39 -189.97,-28.71 -38.83,216.75 -122.28,372.34 -21.68,40.42 9.2,0.23 -29.78,37.37 -70.74,67.39 -198.02,110.38 -302.96,34.98l-57.96 -48.31c-154.19,79.27 -129.3,60.84 -148.84,106.84l-22.03 -93.16 0 5c-163.61,-11.16 -50.93,-0.19 -97.85,-42.04 -153.46,123.94 -253.73,0.67 -286.63,-21.36 0,-74.08 28.36,-270.84 46.88,-337.61 17.08,-61.59 25.13,-76.39 78.72,-113.1 63.87,-43.77 84.99,-27.67 173.44,-61.83 136.45,19.6 50.45,6.22 128.16,65.37l21.68 -25.97c30.24,-23.58 0.66,-7.28 42.4,-26.82l85.29 10.42 0.14 43.63c50.52,53.21 36.12,-65.93 42.62,61.53 -53.84,-51.68 -15.6,-25.58 13.75,-71.45 73.77,43.35 12.95,-19.36 37.72,49.99 142.18,-129.1 96.24,-62.29 269.02,-78.73 3.07,-0.17 50.79,-2.29 52.03,-2.01 33.98,7.37 9.27,-1.86 32.54,16.65 77.46,-36.31 231.23,-21.36 342.63,-21.36l0 85.45c-84.42,7.01 -80.24,6.68 -149.52,21.35 0,182.66 -50.83,289.34 -64.08,448.57l-85.43 0c0,-107.1 18.58,-117.14 21.35,-192.35zm-3802 42.83l0 64.09c208.12,0 124.14,-124.93 187.22,-389.51 21.52,-90.25 11.87,-78.2 111.82,-80.43l-54.3 330.19c-43.23,252.87 -137.67,248.66 -330.19,203.83 -46.09,-192.56 -11.68,-128.79 21.49,-341.67 22.22,-142.64 -12.94,-189.21 128.04,-192.35 -11.84,142.29 -64.08,240.9 -64.08,405.85zm-384.58 -341.77c3.7,-92.21 -21.12,-61.71 85.55,-64.08 0,177.72 -64.08,298.65 -64.08,469.94l192.23 0 0 85.43 -299.03 0 0 -64.19 -13.63 93.77c-131.4,-52.11 -96.52,14.74 -228.06,26.74 -102.65,9.37 -144.69,-59.34 -206.86,-98.69 -148.69,118.84 -262.39,128.35 -424.98,40.04 -2.19,-19.81 -35.44,-142.72 72.02,-171.56 3.03,-0.81 10.23,-1.1 13.01,-1.54 2.78,-0.43 10.8,0.35 13.07,0.17 2.29,-0.17 8.91,-0.14 13.14,1.08l-10.75 46.02c95.54,23.31 45.15,52.57 133.75,42.04 71.78,-8.53 85.33,-51.23 45.91,-105.9 -58.6,-81.24 -171.13,-13.49 -175.56,-185.15l-30.08 101.22c-56.22,-96.97 -71.28,-96.57 -19.01,-175.06 101.72,-152.76 257.5,-185.02 358.61,-94.04 24.82,22.33 24.97,33 56.84,64.67 66.33,65.92 23.52,-46.52 60.14,74.53l4.93 -85.44c-41.39,-0.29 -1.05,6.3 -18.45,-49.68 147.91,-42.53 262.91,-143.97 371.1,36.26 9.95,-16.77 27.3,-30.95 50.86,-48.67l19.33 62.09zm2029.27 -73.06l85.27 10.79c0.16,130.75 -19.68,184.09 -36.73,281.71 -17.8,101.93 -27.72,182.47 -48.54,271.85l-106.8 0 -0.11 -64.08c-62.47,22.12 -22.54,12.18 -71.32,-31.12 -55.72,-49.46 29.79,-5.96 -27.12,-26.23 6.87,99.27 36.61,153.41 -72.89,170.95 -102.26,16.38 -107.55,-27.67 -144.24,-73.66l-35.7 20.24c-134.89,167.33 -289.11,6.68 -326,-20.1 -177.55,86.89 -102.29,77.18 -262.44,14.89 -27.01,13.09 -177.13,157.26 -292.42,-12.24 18.67,-90.15 -6.12,-34.71 5.54,-137.9 6.09,-54.05 18.44,-113.83 24.52,-145.78 28.54,-149.93 38.58,-129.02 91.59,-228.98 45.57,-95.33 127.44,-80.69 236.97,-27.25 6.17,3.01 48.64,27.88 54.22,32.63 43.33,36.82 19.54,-4.18 50.34,58.71l-2.86 -85.45 22.33 -52.27 87.54 19.55c28.07,61.51 3.35,60.11 48,113.57 88.25,105.71 -34.53,-82.65 26.27,25.95 27.4,-52.73 -9.17,-30.8 53.79,-64.19 -33.85,-44.81 72.12,-83.06 72.16,-83.09 -7.63,-39.22 -23.57,-110.97 43.28,-121.78 73.88,-11.96 3.79,-18.59 55.33,12.74 26.33,-31.9 -12.06,-14.86 64.19,-21.36 16.19,28.81 11.67,23.63 21.36,64.18l4.62 53.26c0,0.02 -20.06,147.23 86.16,64.01 43.69,-34.23 57.24,-80.67 135.67,-50.17 38.4,14.93 23.92,-3.9 65.65,92.89 1.79,4.16 3.75,12.04 6.94,17.42 57.69,-36.7 -7.78,7.61 35.12,-32.97 47.17,-44.61 -20.23,-3.79 50.31,-46.72zm-3438.89 -97.82c0,143.45 109.09,657.37 197.24,763.97 41.78,50.5 123.83,111.8 208.59,111.8l6343.79 0c288.28,0 355.49,-290.09 426.98,-470.14 53.09,-133.71 292.03,-576.51 -21.15,-576.51l-6941.86 0c-127.39,0 -213.59,43.56 -213.59,170.88z"></path>
   <path class="fil0" d="M5116.65 7985.68c363.04,0 454.81,-121.36 1097.12,56.31 286.52,79.25 767.06,289.35 1013.36,439.1 605.58,368.2 1919.19,1063.9 2567.27,1063.9 410.27,0 664.47,-46.02 845.81,-499.86 183.17,-458.38 -7.5,-845.85 1140.63,-845.85 -92.88,-138.71 -763.59,-427.2 -1067.97,-427.2 -363.88,0 -706.46,117.99 -945.2,357.76 -178.69,179.48 -297.72,369.88 -476.16,506.39 -146.88,112.38 -177.08,97.07 -372.85,97.07 -370.71,0 -1072.42,-376.03 -1359.89,-519.78 -347.63,-173.81 -580.34,-315.4 -943.91,-465.84 -388.56,-160.79 -531.17,-129.51 -972.35,16.26l-401.02 154.34c-36.33,14.6 -27.27,7.71 -60.86,24.57 -35.7,17.92 -37.52,19.83 -63.98,42.83z"></path>
   <path class="fil0" d="M7231.26 12637.87l12.38 -38.35c20.56,-94.27 -38.31,30.51 10.48,-23.01 2.85,-3.13 12.89,-13.77 17.61,-16.3 0.04,-0.02 504.4,-101.26 598.49,207.51 91.39,299.94 -130.82,432.18 -173.11,487.62 -86.43,113.28 -471.33,124.32 -623.53,106.92 -21.58,-119.55 81.84,-676.43 117.43,-741.38 2.17,0.2 13.43,-3.71 40.25,16.99zm-689.99 623.83c21.39,234.16 -56,523.76 -100.64,762.43 -14.89,79.66 -164.11,641.91 -127.94,711.54 67.24,31.62 376.03,34.6 448.66,7.25 24.18,-52.29 44.06,-172.1 49.95,-242.24 13.42,-159.77 51.98,-101.13 73.71,-242.57 13.15,-85.72 50.18,-442.94 87,-511.3 44.67,-82.92 269.51,-48.67 352.98,-27.17 81.62,21.01 169.66,77.25 200.52,186.91 32.11,114.17 103.88,566.88 47.5,657.83 4.14,50.03 25.74,178.51 42.72,213.9 68.71,32.98 406.38,43.06 513.65,20.93 105.34,-21.74 37.61,-112.02 2.77,-430.56 -43.64,-398.92 -15.3,-597.9 -281.46,-829.28 82.35,-19.18 241.14,-109.99 311.42,-158.48 279.42,-192.8 395.22,-688.08 142.85,-979.34 -134.63,-155.37 -399.03,-258.75 -667.71,-272.13 -599.78,-29.85 -529.93,33.68 -897.26,64.26 0,110.94 -176.06,875.39 -198.72,1068.02z"></path>
   <path class="fil0" d="M13874.08 10121.72c0,570.03 -276.33,939.86 -875.74,939.86 -486.48,0 -952.39,-319.89 -962.02,-768.14 -5.29,-246.44 36.69,-408.96 -165.25,-188.35 -144.11,157.42 -271.33,468.25 -490.67,662.83 -232.74,206.45 -589.34,293.66 -966.57,293.66 -880.39,0 -2137.66,-1056.33 -3028.19,-849.55 -66.37,15.41 -137.07,27.79 -175.74,80.57 120.68,0 144.08,-28.71 254.34,-21.1 264.14,18.24 479.89,74.94 709.93,167.53 1114.13,448.43 1506.05,1007.03 2602.77,1007.03 325.62,0 806.09,-151.96 995.63,-392.76 86.32,-109.66 115.25,-170.01 179.15,-290.77 86.65,58.02 63.43,93.72 177.03,228.82 157.41,187.2 556.67,433.35 805.51,433.35 158.54,0 334.92,-43.78 451.54,-82.45 339.14,-112.47 680.8,-468.84 741.58,-881.8 67.82,-460.74 -114.73,-867.68 -481.23,-1072.01 -90.31,-50.34 -290.15,-139.76 -412.86,-142.5l102.62 68.27c53.94,32.07 67.43,36.27 116.33,75.91 76.65,62.14 136.96,109.43 203.5,180.98 96.19,103.43 218.34,356.41 218.34,550.62z"></path>
   <path class="fil0" d="M9411.18 12343.2c-38.64,19.21 -114.39,74.24 -154.1,103.47 -44.62,32.83 -106.3,87.47 -146.18,112.24 80.25,67.45 -2.17,71.74 -77.17,174.15 -30.6,41.75 -108.41,152.68 -129.73,194.17 -30.7,59.75 -80.25,153.4 -103.57,214.54 -143.85,377.18 -135.85,957.32 135.48,1258.59 55.78,61.94 33.77,27.07 90.67,79.29 91.3,83.8 52.94,104.39 271.39,197.62 139.69,59.6 358.1,103.29 503.19,104.6 1009.09,9.09 611.47,-252.44 656.84,-452.26 -89.81,-3.02 -141.68,26.06 -218.67,39.8 -243.51,43.43 -521.23,12.01 -732.04,-112.62 -239.03,-141.3 -287.2,-511.98 -227.82,-892.73 72.95,-467.78 460.61,-788.21 920.88,-807.31 139.47,-5.79 375.54,25.43 491.15,49.7 53.89,-61.98 67.41,-119.66 88.16,-192.88 71.56,-252.63 75.16,-211.24 -344.6,-256.6 -493.54,-53.33 -842.81,162.8 -958.56,188.44 -4.58,1.01 -11.66,1.98 -15.85,2.57 -4.21,0.6 -12.72,-0.16 -16.18,0.11l-33.29 -4.89z"></path>
   <path class="fil1" d="M15347.89 13261.58c31.77,71.44 21.35,92.79 21.35,190.99l30.92 -166.88c34.26,348.22 -59.97,399.55 -224.86,510.19 -118.99,79.84 -727.43,73.18 -767.72,16.61 -92.46,-137.52 101.24,-572.88 35.45,-712.54 132.1,-60.84 377.37,-43.47 563.58,-48.41 236.53,-6.26 437.81,129.79 341.28,210.04zm-1067.98 1495.35l69.91 -570.91c7.34,-52.45 31.57,-134.12 36.89,-198.07l555.35 0 152.57 402.78c23.77,59.5 57.73,138.74 79.1,198.59 66.14,185.18 18.77,167.61 259.6,167.61 -3.47,-155.99 -277.67,-660.37 -277.67,-790.34 0,-50.06 179.18,-79.04 278.75,-212.52 186.57,-250.13 276.79,-855.5 -470.99,-855.5 -765.78,0 -618.93,-48.91 -652.79,201.61l-173.68 1300.16c-60.92,418.94 -87.22,356.59 142.96,356.59z"></path>
   <path class="fil1" d="M12613.87 12919.93c0,830.83 -589.97,1858.35 469.91,1858.35 397.35,0 625.9,-270.47 693.01,-652.66l117.37 -907.92c13.58,-97.02 41.98,-206.65 44,-297.77 -122.29,-29.28 -44.22,-34.49 -192.23,0l-134.57 1040.25c-40.77,281.25 -92.97,645.72 -548.8,645.42 -164.61,-0.11 -337.14,-70.67 -383.23,-191.83 -55.84,-146.77 -34.99,-342.84 -4.61,-514.5l110.24 -787.25c12.27,-65.85 95.45,-295.56 -171.09,-192.09z"></path>
   <path class="fil1" d="M16672.19 13753.09c5.88,4.93 8.94,8.36 10.08,20.71 21.5,233.27 3.56,26.48 -8.86,236.46 -9.94,168.09 -103.38,558.64 -62.03,697.27l124.04 28.43c198.24,3.4 450.48,-21.13 727.06,-5.25 268.46,15.42 226.91,-19.92 232.67,-101.95 -57.57,-22.24 -187.07,-5.8 -254.06,-7.97 -85.3,-2.77 -170.87,-2.89 -256.27,-2.51 -129.25,0.61 -391.75,33.41 -478.91,-32.24 -8.09,-82.12 81.22,-603.85 115.79,-634.35 88.62,-57.93 299.18,-27.83 427.19,-27.83 156.64,0 313.28,0 469.91,0l0 -170.87c-184.41,0 -641.97,25.24 -793.09,3.01 -105.76,-15.57 -68.06,18.69 -25,-308.49 15.69,-119.28 46.97,-258.83 49.15,-356.7l899.56 2.46c74.18,-0.59 87.14,13.25 117.12,-34.92 16.43,-26.41 16.43,-100.91 0,-127.31 -51.57,-82.87 -452.38,-32.47 -568.13,-32.47 -199.36,0 -398.71,0 -598.07,0 -60.56,126.2 -68.01,402.93 -91.14,567.71 -15.06,107.34 -37.01,158.21 -37.01,286.81z"></path>
   <path class="fil1" d="M18983.43 13847.08c-596.57,-49.26 -644.12,189.61 -552.82,-392.49 9.78,-62.38 20.37,-124.52 31.06,-185.81 16.41,-94.03 0.81,-164.19 -20.02,-135.14 -12.94,-131.19 417.47,-72.23 473.29,-72.23 144.01,0 314.65,-26.21 392.52,40.45 28.97,24.79 82.7,105.78 83.8,108.19 34.1,74.31 47.33,198.87 15.11,290.93 -61.75,176.41 -25.66,169.25 -261.67,336.54l-119.28 12.57c41.45,32.15 50.09,4.6 -41.99,-3.01zm-858.8 803.15c5.32,5.73 12.5,6.92 15.13,17.93l48.96 60.76c88.36,-29.82 102.44,-260.89 116.57,-360.28l66.59 -414.31c130.49,-30.18 314.63,-23.19 460.62,-17.3 141.66,5.72 137.7,-64.55 215.34,182.94 29.87,95.18 34.44,52.01 89.05,219.52 1.63,5 3.37,10.72 5.18,15.7l46.61 108.15c31.83,107.91 -3.1,124.31 81.82,215.82l32.38 32.68c74.3,51.23 -1.85,26.33 100.91,21.79 1.17,-56.9 -105.89,-317.64 -141.06,-386.93l-162.26 -365.57c21.2,-8.57 3.29,-8.98 49.42,6.71 57.67,-91.74 87.91,-60.22 174.68,-124.29 314.5,-232.22 360.84,-798.88 -42.7,-926.08 -118.35,-37.3 -702.53,-54.55 -838.3,-40.35 -117.5,12.28 -97.32,70.62 -112.12,186.9 -19.86,155.83 -56.26,366.71 -74.97,523.13 -22.26,186.2 -43.19,348.84 -68.99,529.1l-62.86 513.98z"></path>
   <path class="fil1" d="M11417.73 14607.4c-513.84,0 -439.18,-396.88 -388.23,-751.37 18.93,-131.75 25.98,-266.65 55.34,-393.23 24.82,-107.01 97.02,-220.27 170.06,-278.5 176.46,-140.66 457.55,-164.26 646.37,-21.68 188.72,142.49 97.3,465.28 73.57,677.57 -35.6,318.56 -80.59,767.21 -557.11,767.21zm-409.77 42.72c10.82,58.77 113.01,86.8 195.01,107.97 238.36,61.53 606.94,-20.02 727.39,-218.11l-36.22 -17.46c171.83,-167.2 159.53,-299.84 178.58,-447.41 28.47,-220.65 141.82,-617.77 59.23,-820.45l-21.67 -44.82c-159.03,-346.04 -590.93,-317.54 -776.66,-221 -99.92,51.95 -189.53,94.64 -262.34,184.18l-26.34 39.78c-10.45,18.36 -12.85,19.32 -26.57,58.16 -61.31,173.62 -102.29,229.48 -105.71,349.64l-68.56 563.06c-6.57,147.74 13.81,160.99 50.28,266.29 70.65,203.99 84.12,97.36 113.58,200.17z"></path>
   <path class="fil0" d="M4305 14393.68l0 42.94 27.13 63.35c1.3,7.5 2.6,13.07 3.32,21.34 0.48,5.35 -8.24,72.66 -9.79,81.52 -8.33,47.54 -18.19,98.58 -25.15,145.7l1543.35 6.08c11.26,-65.32 60.23,-355.91 26.58,-382.17l-1417.07 -18.79c-185.2,12.94 -4.19,69.89 -148.37,40.03z"></path>
   <path class="fil0" d="M4512.95 13347.13l-15.72 73.74c40.2,62.86 10.84,143.98 11.44,212.34 102.89,-0.54 1348.93,19.2 1398.48,-21.79 4.14,-5.26 8.78,-20.56 10.2,-17.29 1.4,3.22 7.56,-12.71 9.29,-17.4 31.43,-85.35 11.69,-64.82 23.88,-144.45 11.22,-73.27 34.06,-112.19 41.41,-193.63 -160.34,-22.08 -1255.76,-18.42 -1402.53,11.19l-44.3 145.38c-44.66,-31.51 -9.63,7.31 -32.15,-48.09z"></path>
   <path class="fil2" d="M9411.18 12343.2l33.29 4.89c3.46,-0.27 11.97,0.49 16.18,-0.11 4.19,-0.59 11.27,-1.56 15.85,-2.57 115.75,-25.64 465.02,-241.77 958.56,-188.44 419.76,45.36 416.16,3.97 344.6,256.6 -20.75,73.22 -34.27,130.9 -88.16,192.88 -115.61,-24.27 -351.68,-55.49 -491.15,-49.7 -460.27,19.1 -847.93,339.53 -920.88,807.31 -59.38,380.75 -11.21,751.43 227.82,892.73 210.81,124.63 488.53,156.05 732.04,112.62 76.99,-13.74 128.86,-42.82 218.67,-39.8 -45.37,199.82 352.25,461.35 -656.84,452.26 -145.09,-1.31 -363.5,-45 -503.19,-104.6 -218.45,-93.23 -180.09,-113.82 -271.39,-197.62 -56.9,-52.22 -34.89,-17.35 -90.67,-79.29 -271.33,-301.27 -279.33,-881.41 -135.48,-1258.59 23.32,-61.14 72.87,-154.79 103.57,-214.54 21.32,-41.49 99.13,-152.42 129.73,-194.17 75,-102.41 157.42,-106.7 77.17,-174.15 -207.8,260.57 -332.62,417.86 -408.31,785.75 -76.11,370 -44.74,707.12 117.73,976.59 385.84,639.99 1422.8,571.73 1721.67,371.59 0,-130.55 -42.72,-296.66 -42.72,-427.2 -97.92,2.17 -128.95,29.1 -228.51,49.16 -181.11,36.47 -564.46,31.13 -726.98,-97.58l-99.85 -92.39c-12.31,-13.64 -29.25,-34.73 -38.12,-47.32 -234.78,-332.56 -125.76,-1097.18 374.1,-1364.31 434.79,-232.35 792.11,-53.68 975.67,-49.6 31.43,-134.9 118.64,-334.08 128.17,-448.56 -175.01,-83.98 -507.21,-134.12 -778.48,-94.97 -233.7,33.74 -505.89,85.32 -694.09,223.13z"></path>
   <path class="fil0" d="M4812.96 12514.08c127.4,109.64 1265.3,79.71 1371.68,53.03 25.69,-100.91 85.52,-308.39 42.4,-386.89 -181.41,58.08 -690.96,-33.21 -850.17,20.57 -184.19,62.2 -233.94,240.2 -377.66,272.16 -71.4,15.88 -147.99,9.92 -186.25,41.13z"></path>
   <path class="fil1" d="M15860.52 14756.93c237.72,0 177.17,44.86 241.38,-442.15l168.68 -1220.51c27.39,-171.62 49.51,-195.7 -111.03,-195.7 -81.74,0 -71.24,105.46 -79.61,176.71l-219.42 1681.65z"></path>
   <path class="fil2" d="M12806.11 9673.15c4.61,2.93 12.63,-0.13 15.22,6.13l176.15 37.45c295.54,67.85 497.65,470.91 231.29,720.87 -191.09,179.33 -499.51,225.5 -681.44,6.98 -45.3,-54.4 -25.16,-66.97 -82.98,-87.9 137.51,590.28 1025.26,468.68 1025.26,-192.23 0,-281.28 -239.63,-512.66 -469.91,-512.66 -76.87,0 -142.66,-6.18 -213.59,21.36z"></path>
   <path class="fil2" d="M7641.33 15846.3c154.07,-67.9 159.7,-104.77 316.15,0 0,208.26 -16.46,486.49 -217.06,500.52 -92.86,6.48 -105.25,-31.69 -167.41,-73.31 0,-118.26 25.36,-240.55 63.39,-341.77 -36.62,-121.05 6.19,-8.61 -60.14,-74.53 -31.87,-31.67 -32.02,-42.34 -56.84,-64.67 -101.11,-90.98 -256.89,-58.72 -358.61,94.04 -52.27,78.49 -37.21,78.09 19.01,175.06l30.08 -101.22c49.99,-249.83 257.09,-176.69 290.46,-145.14 57.95,54.75 47.03,121.97 -41.85,104.96 -34.91,-6.69 -79.14,-92.64 -163.18,32.86 76.56,114.34 280.47,78.07 186.7,291.7 -55.42,126.28 -296.77,155.29 -336.22,-14.01 27.53,-15.46 22.67,-11.49 59.99,-21.36l10.75 -46.02c-4.23,-1.22 -10.85,-1.25 -13.14,-1.08 -2.27,0.18 -10.29,-0.6 -13.07,-0.17 -2.78,0.44 -9.98,0.73 -13.01,1.54 -107.46,28.84 -74.21,151.75 -72.02,171.56 162.59,88.31 276.29,78.8 424.98,-40.04 62.17,39.35 104.21,108.06 206.86,98.69 131.54,-12 96.66,-78.85 228.06,-26.74l13.63 -93.77c12,-76.03 29.84,-146.86 39.2,-217 12.96,-97.12 11.54,-120.53 46.13,-210.1l-19.33 -62.09c-23.56,17.72 -40.91,31.9 -50.86,48.67 -108.19,-180.23 -223.19,-78.79 -371.1,-36.26 17.4,55.98 -22.94,49.39 18.45,49.68z"></path>
   <path class="fil2" d="M4305 14393.68c144.18,29.86 -36.83,-27.09 148.37,-40.03l1417.07 18.79c33.65,26.26 -15.32,316.85 -26.58,382.17l-1543.35 -6.08c6.96,-47.12 16.82,-98.16 25.15,-145.7 1.55,-8.86 10.27,-76.17 9.79,-81.52 -0.72,-8.27 -2.02,-13.84 -3.32,-21.34l-27.13 -63.35c-31.73,81.55 -64.09,271.72 -64.09,363.03l1623.34 0c13.19,-158.64 82.09,-341.35 85.43,-491.3l-1623.33 0c-9.5,35.81 -10.1,49.21 -21.35,85.33z"></path>
   <path class="fil3" d="M11007.96 14650.12c-29.46,-102.81 -42.93,3.82 -113.58,-200.17 -36.47,-105.3 -56.85,-118.55 -50.28,-266.29l68.56 -563.06c3.42,-120.16 44.4,-176.02 105.71,-349.64 13.72,-38.84 16.12,-39.8 26.57,-58.16l26.34 -39.78c72.81,-89.54 162.42,-132.23 262.34,-184.18 185.73,-96.54 617.63,-125.04 776.66,221l21.67 44.82c82.59,202.68 -30.76,599.8 -59.23,820.45 -19.05,147.57 -6.75,280.21 -178.58,447.41l36.22 17.46c190.23,-119.39 241.23,-723.78 275.12,-1025.52 62.99,-560.83 -503.43,-753.47 -945.24,-538.42 -345.99,168.41 -371.96,550.01 -420.33,904 -29.51,215.95 -81.29,348.74 -2.54,581.49 18.9,55.87 24.43,68.69 60.44,109.44 45.02,50.96 52.27,53.79 110.15,79.15z"></path>
   <path class="fil2" d="M7573.01 14564.38c56.38,-90.95 -15.39,-543.66 -47.5,-657.83 -30.86,-109.66 -118.9,-165.9 -200.52,-186.91 -83.47,-21.5 -308.31,-55.75 -352.98,27.17 -36.82,68.36 -73.85,425.58 -87,511.3 -21.73,141.44 -60.29,82.8 -73.71,242.57 -5.89,70.14 -25.77,189.95 -49.95,242.24 -72.63,27.35 -381.42,24.37 -448.66,-7.25 -36.17,-69.63 113.05,-631.88 127.94,-711.54 44.64,-238.67 122.03,-528.27 100.64,-762.43l-286.17 1494.52c18.8,69.42 148.02,44.09 249.85,43.5 99.66,-0.57 199.45,-0.07 299.11,-0.07l184.42 -947.68c16.72,-85.91 -11.16,-80.88 71.91,-99.02 249.73,-54.53 402.16,63.99 443.79,218.38 25.48,94.5 68.83,486.58 68.83,593.05z"></path>
   <path class="fil2" d="M12101.23 15788.94l26.06 120.59c-184.67,42.79 -4.22,0.05 -145.05,-27.33 -67.26,-13.09 -71.37,29.61 -73.24,113.62 36.8,17.66 53.77,16.72 93.28,34.89 83.02,38.16 56.95,14.87 77.6,71.92 27.41,43.21 17.91,-55.61 18.48,63.24 0.73,151.19 -153.31,202.35 -270.56,168.63 -66.51,-19.11 -66.42,-39.93 -68.32,-125.07 178.5,-14.85 9.22,-14.24 121.57,30.85 102.43,41.1 204.28,-66.3 48.13,-135.32 -75.6,-33.42 -63.25,-23.74 -126.98,-66.41 0,-111.54 -6.4,-85.57 30.01,-170.88 -24.77,-69.35 36.05,-6.64 -37.72,-49.99 -29.35,45.87 -67.59,19.77 -13.75,71.45 -6.5,-127.46 7.9,-8.32 -42.62,-61.53 -20.9,65.47 -85.43,430.87 -85.43,509.99l-106.8 -5.68 22.03 93.16c19.54,-46 -5.35,-27.57 148.84,-106.84l57.96 48.31c104.94,75.4 232.22,32.41 302.96,-34.98 38.98,-37.14 8.1,3.05 29.78,-37.37 83.45,-155.59 -67.69,-401.05 122.28,-372.34 20.53,60.69 -43.82,169.24 21.01,223.39 15.15,-49.6 37.88,-198.02 42.72,-256.22 -101.8,-8.47 -41.7,-26.89 -106.8,0l-0.87 -85.44c-23.27,-18.51 1.44,-9.28 -32.54,-16.65 -1.24,-0.28 -48.96,1.84 -52.03,2.01z"></path>
   <path class="fil2" d="M4812.96 12514.08c38.26,-31.21 114.85,-25.25 186.25,-41.13 143.72,-31.96 193.47,-209.96 377.66,-272.16 159.21,-53.78 668.76,37.51 850.17,-20.57 43.12,78.5 -16.71,285.98 -42.4,386.89 -106.38,26.68 -1244.28,56.61 -1371.68,-53.03zm-80.78 -85.44c3.75,167.95 150.48,192.24 299.04,192.24l1132.06 0c95.18,0 101.82,-265.21 149.51,-469.92 -228.22,0 -718.23,-34.05 -895.15,0.24 -322.98,62.62 -266.52,247.61 -458.04,291.56 -79.95,18.35 -174.31,11.36 -227.42,-14.12z"></path>
   <path class="fil2" d="M9452.65 15824.83c123.72,-62.06 105.97,-51.3 234.96,-21.25 41.57,86.64 34.05,133.12 15.97,249.93 -4.64,29.99 -17.24,98.51 -29.81,141.75 -4.4,15.12 -20.72,62.04 -21.45,64.59 -15.09,52.25 -9.45,18.15 -17.06,73.84l35.7 -20.24c36.69,45.99 41.98,90.04 144.24,73.66 109.5,-17.54 79.76,-71.68 72.89,-170.95 56.91,20.27 -28.6,-23.23 27.12,26.23 48.78,43.3 8.85,53.24 71.32,31.12 -27.89,-72.21 -62.31,-182.33 -63.97,-256.32l-42.73 0c0,121.34 -40.19,207.15 -42.71,320.4l-85.44 0c0,-177 81.45,-376.06 85.44,-555.37l106.8 0c10.01,120.26 61.45,223.99 64.09,341.77l42.71 0c0,-139.58 42.72,-194.06 42.72,-350.75 -70.54,42.93 -3.14,2.11 -50.31,46.72 -42.9,40.58 22.57,-3.73 -35.12,32.97 -3.19,-5.38 -5.15,-13.26 -6.94,-17.42 -41.73,-96.79 -27.25,-77.96 -65.65,-92.89 -78.43,-30.5 -91.98,15.94 -135.67,50.17 -106.22,83.22 -86.16,-63.99 -86.16,-64.01l-4.62 -53.26c-60.48,31.83 -85.6,72.18 -149.52,42.62 18.27,-68.44 3.2,-39.21 63.97,-85.44 -51.54,-31.33 18.55,-24.7 -55.33,-12.74 -66.85,10.81 -50.91,82.56 -43.28,121.78 -0.04,0.03 -106.01,38.28 -72.16,83.09z"></path>
   <path class="fil3" d="M18124.63 14650.23l0 106.7 170.89 0 72.74 -568.08c12.69,-78.45 32.28,-121.51 34.05,-200.9l555.35 0c112.5,234.47 179.6,543.26 299.03,768.98l192.24 0c-1.92,-86.15 -101.1,-306.47 -137.29,-396.72 -22.58,-56.3 -116.08,-349.67 -161.75,-372.37 -46.13,-15.69 -28.22,-15.28 -49.42,-6.71l162.26 365.57c35.17,69.29 142.23,330.03 141.06,386.93 -102.76,4.54 -26.61,29.44 -100.91,-21.79l-32.38 -32.68c-84.92,-91.51 -49.99,-107.91 -81.82,-215.82l-46.61 -108.15c-1.81,-4.98 -3.55,-10.7 -5.18,-15.7 -54.61,-167.51 -59.18,-124.34 -89.05,-219.52 -77.64,-247.49 -73.68,-177.22 -215.34,-182.94 -145.99,-5.89 -330.13,-12.88 -460.62,17.3l-66.59 414.31c-14.13,99.39 -28.21,330.46 -116.57,360.28l-48.96 -60.76c-2.63,-11.01 -9.81,-12.2 -15.13,-17.93z"></path>
   <path class="fil2" d="M9214.72 15782.22l88.41 0c0,148.08 -54.78,423.77 -85.43,555.37l-106.8 0c58.02,-120.94 47.62,-317 106.68,-469.92 -30.8,-62.89 -7.01,-21.89 -50.34,-58.71 -5.58,-4.75 -48.05,-29.62 -54.22,-32.63 -109.53,-53.44 -191.4,-68.08 -236.97,27.25 80.68,-12.73 158.63,-43.1 218.66,17.23 14.75,14.8 41.34,63.98 38.29,90.63 -8.19,71.47 -32.77,58.65 -107.43,63.03l32.9 29.19c3.38,2.61 10.56,8.95 14.44,11.78 40,29.17 0.82,3.99 41.23,23.11 4.52,148.29 -12.59,-27.98 -24.6,128.26 -66.83,200.93 -108.44,189.12 -335.14,149.43 115.29,169.5 265.41,25.33 292.42,12.24 160.15,62.29 84.89,72 262.44,-14.89 36.89,26.78 191.11,187.43 326,20.1 -92.05,-11.52 -170.48,29.36 -268.04,-17.45 -54.95,-114.52 -0.59,-314.44 31.64,-427.22 -60.8,-108.6 61.98,79.76 -26.27,-25.95 -44.65,-53.46 -19.93,-52.06 -48,-113.57l-87.54 -19.55 -22.33 52.27z"></path>
   <path class="fil2" d="M4512.95 13347.13c22.52,55.4 -12.51,16.58 32.15,48.09l44.3 -145.38c146.77,-29.61 1242.19,-33.27 1402.53,-11.19 -7.35,81.44 -30.19,120.36 -41.41,193.63 -12.19,79.63 7.55,59.1 -23.88,144.45 -1.73,4.69 -7.89,20.62 -9.29,17.4 -1.42,-3.27 -6.06,12.03 -10.2,17.29 -49.55,40.99 -1295.59,21.25 -1398.48,21.79 -0.6,-68.36 28.76,-149.48 -11.44,-212.34 -31.88,172.78 -126.27,250.52 104.89,248.52l1347.56 -1.84c37.63,-78.43 85.43,-345.4 85.43,-469.94l-1452.63 -0.29c-93.02,19.35 -58.12,38.51 -69.53,149.81z"></path>
   <path class="fil3" d="M16821.7 13951.69c-34.57,30.5 -123.88,552.23 -115.79,634.35 87.16,65.65 349.66,32.85 478.91,32.24 85.4,-0.38 170.97,-0.26 256.27,2.51 66.99,2.17 196.49,-14.27 254.06,7.97 -5.76,82.03 35.79,117.37 -232.67,101.95 -276.58,-15.88 -528.82,8.65 -727.06,5.25l-124.04 -28.43c-41.35,-138.63 52.09,-529.18 62.03,-697.27 12.42,-209.98 30.36,-3.19 8.86,-236.46 -1.14,-12.35 -4.2,-15.78 -10.08,-20.71l-128.16 1003.84 1196.13 0c6.85,-82.32 21.36,-68.87 21.36,-170.89l-1003.89 0c0,-223.4 64.07,-413.37 64.07,-634.35z"></path>
   <path class="fil3" d="M18423.67 13795.71l85.44 -704.9c462.55,0 875.74,-94.1 875.74,277.69 0,569.75 -558.77,427.21 -961.18,427.21zm17.98 -662.07c20.83,-29.05 36.43,41.11 20.02,135.14 -10.69,61.29 -21.28,123.43 -31.06,185.81 -91.3,582.1 -43.75,343.23 552.82,392.49 92.08,7.61 83.44,35.16 41.99,3.01l119.28 -12.57c236.01,-167.29 199.92,-160.13 261.67,-336.54 32.22,-92.06 18.99,-216.62 -15.11,-290.93 -1.1,-2.41 -54.83,-83.4 -83.8,-108.19 -77.87,-66.66 -248.51,-40.45 -392.52,-40.45 -55.82,0 -486.23,-58.96 -473.29,72.23z"></path>
   <path class="fil3" d="M15369.24 13452.57c-24.69,53.37 -67.73,310.29 -300.77,341.38 -158.07,21.1 -484.53,1.76 -660.4,1.76 2.11,-95.17 32.09,-234.08 49.2,-335.3 15.14,-89.56 36.23,-257 36.23,-369.6 477.36,0 754.41,-74.83 854.39,170.77 96.53,-80.25 -104.75,-216.3 -341.28,-210.04 -186.21,4.94 -431.48,-12.43 -563.58,48.41 65.79,139.66 -127.91,575.02 -35.45,712.54 40.29,56.57 648.73,63.23 767.72,-16.61 164.89,-110.64 259.12,-161.97 224.86,-510.19l-30.92 166.88z"></path>
   <path class="fil2" d="M7243.64 12599.52c132.77,-42.81 339.96,-27.16 451.59,27.3 124.37,60.69 196.45,169.71 143.55,366.52 -80.33,298.89 -465.83,373.95 -735.68,311.08 2.31,-103.96 97.78,-585.78 128.16,-666.55 -26.82,-20.7 -38.08,-16.79 -40.25,-16.99 -35.59,64.95 -139.01,621.83 -117.43,741.38 152.2,17.4 537.1,6.36 623.53,-106.92 42.29,-55.44 264.5,-187.68 173.11,-487.62 -94.09,-308.77 -598.45,-207.53 -598.49,-207.51 -4.72,2.53 -14.76,13.17 -17.61,16.3 -48.79,53.52 10.08,-71.26 -10.48,23.01z"></path>
   <path class="fil2" d="M11448.04 16294.87c46.92,41.85 -65.76,30.88 97.85,42.04 47.37,-153.65 73.81,-394.27 106.8,-563.36 -41.74,19.54 -12.16,3.24 -42.4,26.82l-21.68 25.97c-77.71,-59.15 8.29,-45.77 -128.16,-65.37l35.26 45.85c48.71,66.64 48.1,53.18 50.18,146.28 -209.06,0 -19.65,-23.69 -170.88,-64.08 -72.42,48.5 -176.4,329.11 -59.94,360.19 59.5,15.86 44.79,5.43 102.66,-61.14 -39.77,-148.93 -47.66,21.94 -64.07,-128.16 65.82,-31.59 78.32,-21.36 170.86,-21.36 0,59.09 -5.95,100.36 -15.09,133.71 -24.34,88.91 -18.74,45.46 -61.39,122.61z"></path>
   <path class="fil2" d="M12955.73 16294.87c37.61,63.79 -1.1,14.97 38.39,45.75 3.4,2.64 19.13,-1.19 25.58,-3.14 60.14,-119.15 147.17,-270.25 170.88,-394.04l-64.09 60.25c-42.73,-39.92 -4.43,-8.24 -64.07,-31.19l-85.44 2.37c-7.68,-92.65 -12.07,-83.73 -106.79,-85.85 -35.82,74.65 -80.39,284.65 -42.73,363.14 183.8,-15.3 0.28,-85.45 213.6,-85.45 -45.6,95.04 10.33,55.37 -85.33,128.16z"></path>
   <path class="fil2" d="M12602.26 15782.22l75.69 0c-4.05,181.66 -85.44,378.04 -85.44,560.08 68.25,-14.5 50.01,-8.69 85.33,-196.95l8 21.36c37.64,-36.39 29.21,-26.05 47.82,-137.11 17.47,-104.22 37.55,-202.27 147.22,-238.37 67.29,-22.13 109.44,0.53 160.18,12.35 24.62,51.32 37.79,88.23 42.72,162.5 35.68,-41.13 48.39,69.49 35.97,-98.49 -5.94,-80.35 -89.18,-112.68 -161.74,-130.69 -86.74,-21.53 -180.36,36.51 -227.56,114.78l-55.32 -102.9 -72.87 33.44z"></path>
   <path class="fil0" d="M9089.54 16166.81c12.01,-156.24 29.12,20.03 24.6,-128.26 -40.41,-19.12 -1.23,6.06 -41.23,-23.11 -3.88,-2.83 -11.06,-9.17 -14.44,-11.78l-32.9 -29.19c-3.71,-92.11 -16.1,-83.43 -106.91,-85.45 -35.81,74.65 -80.38,284.65 -42.72,363.14 183.92,-15.32 0.44,-86.02 213.6,-85.35z"></path>
   <path class="fil2" d="M10862.38 16252.16c138.33,0 124.2,-2.83 155.42,-165.33 16.75,-87.18 32.32,-118.18 15.46,-197.81 -167.04,-42.73 -170.88,182.76 -170.88,363.14z"></path>
   <path class="fil2" d="M7679.81 16209.43c0,20.92 111.83,147.71 159.25,-118.76 17.64,-99.14 26.13,-133.13 11.63,-201.65l-106.81 0c-27.91,58.2 -64.07,231.29 -64.07,320.41z"></path>
   <path class="fil2" d="M9495.37 16252.16c94.55,0 87.1,-102.56 101.97,-176.16 16.36,-81.01 66.66,-186.98 -37.89,-186.98 -96.84,0 -81.83,93.11 -98.14,179.98 -16.51,87.99 -68.35,183.16 34.06,183.16z"></path>
   <path class="fil2" d="M13211.94 16166.71l85.43 0 0 -149.52c-50.92,37.31 -68.75,77.89 -85.43,149.52z"></path>
  </g>
 </g>
</svg>
